<mxfile host="app.diagrams.net" agent="Mozilla/5.0 (Windows NT 10.0; Win64; x64) AppleWebKit/537.36 (KHTML, like Gecko) Chrome/133.0.0.0 Safari/537.36" version="26.0.11">
  <diagram name="Page-1" id="q_YZDVa9i48gjmK6_BKZ">
    <mxGraphModel dx="1434" dy="738" grid="1" gridSize="10" guides="1" tooltips="1" connect="1" arrows="1" fold="1" page="1" pageScale="1" pageWidth="850" pageHeight="1100" math="0" shadow="0">
      <root>
        <mxCell id="0" />
        <mxCell id="1" parent="0" />
        <mxCell id="kXTwIk5_9uMxapLTNHhT-1" value="" style="verticalLabelPosition=bottom;html=1;verticalAlign=top;align=center;strokeColor=none;fillColor=#00BEF2;shape=mxgraph.azure.user;" vertex="1" parent="1">
          <mxGeometry x="30" y="260" width="47.5" height="50" as="geometry" />
        </mxCell>
        <mxCell id="kXTwIk5_9uMxapLTNHhT-2" value="" style="whiteSpace=wrap;html=1;aspect=fixed;" vertex="1" parent="1">
          <mxGeometry x="150" y="20" width="840" height="840" as="geometry" />
        </mxCell>
        <mxCell id="kXTwIk5_9uMxapLTNHhT-3" value="RAG" style="rounded=0;whiteSpace=wrap;html=1;" vertex="1" parent="1">
          <mxGeometry x="210" y="240" width="120" height="60" as="geometry" />
        </mxCell>
        <mxCell id="kXTwIk5_9uMxapLTNHhT-4" value="Vector DB" style="image;aspect=fixed;perimeter=ellipsePerimeter;html=1;align=center;shadow=0;dashed=0;spacingTop=3;image=img/lib/active_directory/database_server.svg;" vertex="1" parent="1">
          <mxGeometry x="240" y="80" width="41" height="50" as="geometry" />
        </mxCell>
        <mxCell id="kXTwIk5_9uMxapLTNHhT-5" value="Internet" style="outlineConnect=0;dashed=0;verticalLabelPosition=bottom;verticalAlign=top;align=center;html=1;shape=mxgraph.aws3.internet_gateway;fillColor=#F58534;gradientColor=none;" vertex="1" parent="1">
          <mxGeometry x="380" y="80" width="69" height="72" as="geometry" />
        </mxCell>
        <mxCell id="kXTwIk5_9uMxapLTNHhT-6" value="Prompt Cache" style="rounded=0;whiteSpace=wrap;html=1;" vertex="1" parent="1">
          <mxGeometry x="425" y="240" width="120" height="60" as="geometry" />
        </mxCell>
        <mxCell id="kXTwIk5_9uMxapLTNHhT-7" value="Input GuardRail" style="rounded=1;whiteSpace=wrap;html=1;" vertex="1" parent="1">
          <mxGeometry x="690" y="240" width="120" height="60" as="geometry" />
        </mxCell>
        <mxCell id="kXTwIk5_9uMxapLTNHhT-8" value="LLM 8B" style="whiteSpace=wrap;html=1;aspect=fixed;" vertex="1" parent="1">
          <mxGeometry x="710" y="350" width="80" height="80" as="geometry" />
        </mxCell>
        <mxCell id="kXTwIk5_9uMxapLTNHhT-9" value="Output GuardRail" style="rounded=1;whiteSpace=wrap;html=1;" vertex="1" parent="1">
          <mxGeometry x="690" y="480" width="120" height="60" as="geometry" />
        </mxCell>
        <mxCell id="kXTwIk5_9uMxapLTNHhT-10" value="Query" style="endArrow=classic;html=1;rounded=0;" edge="1" parent="1" target="kXTwIk5_9uMxapLTNHhT-3">
          <mxGeometry x="0.0093" y="9" width="50" height="50" relative="1" as="geometry">
            <mxPoint x="90" y="280" as="sourcePoint" />
            <mxPoint x="160" y="250" as="targetPoint" />
            <Array as="points">
              <mxPoint x="130" y="280" />
            </Array>
            <mxPoint as="offset" />
          </mxGeometry>
        </mxCell>
        <mxCell id="kXTwIk5_9uMxapLTNHhT-11" value="" style="endArrow=classic;html=1;rounded=0;" edge="1" parent="1" target="kXTwIk5_9uMxapLTNHhT-4">
          <mxGeometry width="50" height="50" relative="1" as="geometry">
            <mxPoint x="250" y="240" as="sourcePoint" />
            <mxPoint x="300" y="190" as="targetPoint" />
          </mxGeometry>
        </mxCell>
        <mxCell id="kXTwIk5_9uMxapLTNHhT-12" value="" style="endArrow=classic;html=1;rounded=0;exitX=0.908;exitY=0.05;exitDx=0;exitDy=0;exitPerimeter=0;" edge="1" parent="1" source="kXTwIk5_9uMxapLTNHhT-3" target="kXTwIk5_9uMxapLTNHhT-5">
          <mxGeometry width="50" height="50" relative="1" as="geometry">
            <mxPoint x="330" y="220" as="sourcePoint" />
            <mxPoint x="380" y="170" as="targetPoint" />
          </mxGeometry>
        </mxCell>
        <mxCell id="kXTwIk5_9uMxapLTNHhT-13" value="" style="endArrow=classic;html=1;rounded=0;entryX=0.058;entryY=0.6;entryDx=0;entryDy=0;entryPerimeter=0;exitX=1.067;exitY=0.667;exitDx=0;exitDy=0;exitPerimeter=0;" edge="1" parent="1" source="kXTwIk5_9uMxapLTNHhT-3" target="kXTwIk5_9uMxapLTNHhT-6">
          <mxGeometry width="50" height="50" relative="1" as="geometry">
            <mxPoint x="360" y="310" as="sourcePoint" />
            <mxPoint x="410" y="260" as="targetPoint" />
            <Array as="points" />
          </mxGeometry>
        </mxCell>
        <mxCell id="kXTwIk5_9uMxapLTNHhT-14" value="" style="endArrow=classic;html=1;rounded=0;entryX=0;entryY=0.75;entryDx=0;entryDy=0;exitX=1.067;exitY=0.717;exitDx=0;exitDy=0;exitPerimeter=0;" edge="1" parent="1" source="kXTwIk5_9uMxapLTNHhT-6" target="kXTwIk5_9uMxapLTNHhT-7">
          <mxGeometry width="50" height="50" relative="1" as="geometry">
            <mxPoint x="600" y="310" as="sourcePoint" />
            <mxPoint x="650" y="260" as="targetPoint" />
          </mxGeometry>
        </mxCell>
        <mxCell id="kXTwIk5_9uMxapLTNHhT-17" value="" style="endArrow=classic;html=1;rounded=0;exitX=0.5;exitY=1;exitDx=0;exitDy=0;entryX=0.413;entryY=0.025;entryDx=0;entryDy=0;entryPerimeter=0;" edge="1" parent="1" source="kXTwIk5_9uMxapLTNHhT-7" target="kXTwIk5_9uMxapLTNHhT-8">
          <mxGeometry width="50" height="50" relative="1" as="geometry">
            <mxPoint x="630" y="400" as="sourcePoint" />
            <mxPoint x="680" y="350" as="targetPoint" />
          </mxGeometry>
        </mxCell>
        <mxCell id="kXTwIk5_9uMxapLTNHhT-18" value="Response" style="endArrow=classic;html=1;rounded=0;exitX=-0.025;exitY=0.617;exitDx=0;exitDy=0;exitPerimeter=0;entryX=0.842;entryY=0.92;entryDx=0;entryDy=0;entryPerimeter=0;" edge="1" parent="1" source="kXTwIk5_9uMxapLTNHhT-9" target="kXTwIk5_9uMxapLTNHhT-1">
          <mxGeometry width="50" height="50" relative="1" as="geometry">
            <mxPoint x="630" y="400" as="sourcePoint" />
            <mxPoint x="680" y="350" as="targetPoint" />
          </mxGeometry>
        </mxCell>
        <mxCell id="kXTwIk5_9uMxapLTNHhT-19" value="" style="endArrow=classic;html=1;rounded=0;entryX=0.625;entryY=0.067;entryDx=0;entryDy=0;entryPerimeter=0;exitX=0.5;exitY=1;exitDx=0;exitDy=0;" edge="1" parent="1" source="kXTwIk5_9uMxapLTNHhT-8" target="kXTwIk5_9uMxapLTNHhT-9">
          <mxGeometry width="50" height="50" relative="1" as="geometry">
            <mxPoint x="720" y="490" as="sourcePoint" />
            <mxPoint x="770" y="440" as="targetPoint" />
          </mxGeometry>
        </mxCell>
      </root>
    </mxGraphModel>
  </diagram>
</mxfile>
